<mxfile host="65bd71144e">
    <diagram id="KiKQSQD3LDUWRtyAgY7d" name="Arquitetura em Camadas">
        <mxGraphModel dx="499" dy="1574" grid="1" gridSize="10" guides="1" tooltips="1" connect="1" arrows="1" fold="1" page="1" pageScale="1" pageWidth="850" pageHeight="1100" math="0" shadow="0">
            <root>
                <mxCell id="0"/>
                <mxCell id="1" parent="0"/>
                <mxCell id="2" value="&lt;font color=&quot;#000000&quot;&gt;ecommerce-nodi-api (back-end)&lt;/font&gt;" style="verticalAlign=top;align=left;spacingTop=8;spacingLeft=2;spacingRight=12;shape=cube;size=10;direction=south;fontStyle=4;html=1;strokeWidth=2;fillColor=#CCCCCC;" parent="1" vertex="1">
                    <mxGeometry x="5" y="125" width="480" height="345" as="geometry"/>
                </mxCell>
                <mxCell id="3" value="&lt;font color=&quot;#1a0f0f&quot;&gt;ecommerce-wbe-app (front-end)&lt;/font&gt;" style="verticalAlign=top;align=left;spacingTop=8;spacingLeft=2;spacingRight=12;shape=cube;size=10;direction=south;fontStyle=4;html=1;strokeWidth=2;fillColor=#CCCCCC;" parent="1" vertex="1">
                    <mxGeometry x="10" y="-20" width="470" height="110" as="geometry"/>
                </mxCell>
                <mxCell id="7" value="&lt;font color=&quot;#000000&quot;&gt;Database (Relacional)&lt;/font&gt;" style="shape=cylinder3;whiteSpace=wrap;html=1;boundedLbl=1;backgroundOutline=1;size=15;strokeWidth=2;strokeColor=#CCCCCC;fillColor=#CCCCCC;" parent="1" vertex="1">
                    <mxGeometry x="100" y="483" width="240" height="80" as="geometry"/>
                </mxCell>
                <mxCell id="93" style="edgeStyle=none;html=1;exitX=0.07;exitY=0.97;exitDx=0;exitDy=0;exitPerimeter=0;entryX=0;entryY=0.25;entryDx=0;entryDy=0;entryPerimeter=0;dashed=1;strokeColor=#000000;" edge="1" parent="1" source="13" target="69">
                    <mxGeometry relative="1" as="geometry">
                        <Array as="points">
                            <mxPoint x="50" y="240"/>
                        </Array>
                    </mxGeometry>
                </mxCell>
                <mxCell id="96" style="edgeStyle=none;html=1;exitX=0.04;exitY=0.97;exitDx=0;exitDy=0;exitPerimeter=0;entryX=0;entryY=0.5;entryDx=0;entryDy=0;dashed=1;strokeColor=#000000;strokeWidth=1;" edge="1" parent="1" source="13" target="20">
                    <mxGeometry relative="1" as="geometry">
                        <Array as="points">
                            <mxPoint x="30" y="330"/>
                        </Array>
                    </mxGeometry>
                </mxCell>
                <mxCell id="13" value="" style="rounded=1;whiteSpace=wrap;html=1;strokeWidth=2;fillColor=#1ba1e2;fontColor=#ffffff;strokeColor=#006EAF;points=[[0,0,0,0,0],[0,0.27,0,0,0],[0,0.5,0,0,0],[0,0.73,0,0,0],[0,1,0,0,0],[0.04,0.97,0,0,0],[0.07,0.97,0,0,0],[0.5,0,0,0,0],[0.5,1,0,0,0],[0.75,0,0,0,0],[0.75,1,0,0,0],[1,0,0,0,0],[1,0.27,0,0,0],[1,0.5,0,0,0],[1,0.77,0,0,0],[1,1,0,0,0]];" parent="1" vertex="1">
                    <mxGeometry x="20" y="160" width="440" height="50" as="geometry"/>
                </mxCell>
                <mxCell id="20" value="" style="rounded=1;whiteSpace=wrap;html=1;strokeWidth=2;fillColor=#FF6666;fontColor=#ffffff;strokeColor=#6F0000;" parent="1" vertex="1">
                    <mxGeometry x="190" y="307" width="250" height="54" as="geometry"/>
                </mxCell>
                <mxCell id="21" value="" style="rounded=1;whiteSpace=wrap;html=1;strokeWidth=2;fillColor=#d80073;strokeColor=#A50040;fontColor=#ffffff;arcSize=15;" parent="1" vertex="1">
                    <mxGeometry x="20" y="50" width="440" height="30" as="geometry"/>
                </mxCell>
                <mxCell id="65" value="Camada de apresentação" style="text;html=1;strokeColor=none;fillColor=none;align=center;verticalAlign=middle;whiteSpace=wrap;rounded=0;fontColor=#000000;" parent="1" vertex="1">
                    <mxGeometry x="10" y="150" width="170" height="30" as="geometry"/>
                </mxCell>
                <mxCell id="67" value="Interface de usuário" style="text;html=1;strokeColor=none;fillColor=none;align=center;verticalAlign=middle;whiteSpace=wrap;rounded=0;fontColor=#000000;" parent="1" vertex="1">
                    <mxGeometry x="70" y="50" width="120" height="30" as="geometry"/>
                </mxCell>
                <mxCell id="68" value="Camada de domínio" style="text;html=1;strokeColor=none;fillColor=none;align=center;verticalAlign=middle;whiteSpace=wrap;rounded=0;fontColor=#000000;" parent="1" vertex="1">
                    <mxGeometry x="210" y="307" width="120" height="30" as="geometry"/>
                </mxCell>
                <mxCell id="94" style="edgeStyle=none;html=1;exitX=0.25;exitY=1;exitDx=0;exitDy=0;exitPerimeter=0;entryX=0.25;entryY=0;entryDx=0;entryDy=0;dashed=1;strokeColor=#000000;strokeWidth=1;" edge="1" parent="1" source="69" target="68">
                    <mxGeometry relative="1" as="geometry"/>
                </mxCell>
                <mxCell id="69" value="" style="rounded=1;whiteSpace=wrap;html=1;strokeWidth=2;fillColor=#FFFF33;fontColor=#ffffff;strokeColor=#6F0000;points=[[0,0,0,0,0],[0,0.25,0,0,0],[0,0.5,0,0,0],[0,0.75,0,0,0],[0,1,0,0,0],[0.25,0,0,0,0],[0.25,1,0,0,0],[0.47,0.92,0,0,0],[0.5,0,0,0,0],[0.75,0,0,0,0],[0.75,1,0,0,0],[1,0,0,0,0],[1,0.25,0,0,0],[1,0.5,0,0,0],[1,0.75,0,0,0],[1,1,0,0,0]];" parent="1" vertex="1">
                    <mxGeometry x="190" y="220" width="260" height="50" as="geometry"/>
                </mxCell>
                <mxCell id="70" value="Camada de aplicação" style="text;html=1;strokeColor=none;fillColor=none;align=center;verticalAlign=middle;whiteSpace=wrap;rounded=0;fontColor=#000000;" parent="1" vertex="1">
                    <mxGeometry x="200" y="230" width="160" height="30" as="geometry"/>
                </mxCell>
                <mxCell id="92" style="edgeStyle=none;html=1;exitX=0.5;exitY=0;exitDx=0;exitDy=0;entryX=0.5;entryY=1;entryDx=0;entryDy=0;dashed=1;strokeColor=#000000;" edge="1" parent="1" source="71" target="20">
                    <mxGeometry relative="1" as="geometry"/>
                </mxCell>
                <mxCell id="95" style="edgeStyle=none;html=1;exitX=0.25;exitY=0;exitDx=0;exitDy=0;entryX=0;entryY=0.5;entryDx=0;entryDy=0;entryPerimeter=0;dashed=1;strokeColor=#000000;strokeWidth=1;" edge="1" parent="1" source="71" target="69">
                    <mxGeometry relative="1" as="geometry">
                        <Array as="points">
                            <mxPoint x="137" y="250"/>
                        </Array>
                    </mxGeometry>
                </mxCell>
                <mxCell id="71" value="" style="rounded=1;whiteSpace=wrap;html=1;strokeWidth=2;fillColor=#33FF99;fontColor=#ffffff;strokeColor=#2D7600;" parent="1" vertex="1">
                    <mxGeometry x="30" y="391" width="430" height="50" as="geometry"/>
                </mxCell>
                <mxCell id="72" value="Camada de infraestrutura" style="text;html=1;strokeColor=none;fillColor=none;align=center;verticalAlign=middle;whiteSpace=wrap;rounded=0;fontColor=#000000;" parent="1" vertex="1">
                    <mxGeometry x="40" y="401" width="170" height="30" as="geometry"/>
                </mxCell>
                <mxCell id="73" value="+ abstrata" style="text;html=1;strokeColor=none;fillColor=none;align=center;verticalAlign=middle;whiteSpace=wrap;rounded=0;fontColor=#000000;" parent="1" vertex="1">
                    <mxGeometry x="210" y="331" width="60" height="30" as="geometry"/>
                </mxCell>
                <mxCell id="75" value="Menos abstrata" style="text;html=1;strokeColor=none;fillColor=none;align=center;verticalAlign=middle;whiteSpace=wrap;rounded=0;fontColor=#000000;" parent="1" vertex="1">
                    <mxGeometry x="30" y="411" width="130" height="30" as="geometry"/>
                </mxCell>
                <mxCell id="77" value="Menos abstrata" style="text;html=1;strokeColor=none;fillColor=none;align=center;verticalAlign=middle;whiteSpace=wrap;rounded=0;fontColor=#000000;" parent="1" vertex="1">
                    <mxGeometry x="10" y="170" width="120" height="30" as="geometry"/>
                </mxCell>
                <mxCell id="91" value="" style="curved=1;endArrow=classic;html=1;strokeWidth=2;fontColor=#000000;strokeColor=#000000;" parent="1" edge="1">
                    <mxGeometry width="50" height="50" relative="1" as="geometry">
                        <mxPoint x="320" y="152" as="sourcePoint"/>
                        <mxPoint x="224.77777777777771" y="137" as="targetPoint"/>
                        <Array as="points">
                            <mxPoint x="330" y="192"/>
                            <mxPoint x="392" y="456"/>
                            <mxPoint x="367" y="442"/>
                            <mxPoint x="342" y="406"/>
                            <mxPoint x="237" y="192"/>
                        </Array>
                    </mxGeometry>
                </mxCell>
            </root>
        </mxGraphModel>
    </diagram>
</mxfile>